<mxfile host="drawio-plugin" modified="2022-12-08T15:01:12.046Z" agent="5.0 (X11; Linux x86_64) AppleWebKit/537.36 (KHTML, like Gecko) Chrome/104.0.5112.102 Safari/537.36" etag="i98JggyiW1ardLMRqKJP" version="20.5.3" type="embed"><diagram name="Page-1" id="e56a1550-8fbb-45ad-956c-1786394a9013"><mxGraphModel dx="3388" dy="819" grid="1" gridSize="10" guides="1" tooltips="1" connect="1" arrows="1" fold="1" page="1" pageScale="1" pageWidth="1100" pageHeight="850" math="0" shadow="0"><root><mxCell id="0"/><mxCell id="1" parent="0"/><mxCell id="GNEfKHNCvj7tmS5w7Qb4-5" value="" style="group" parent="1" vertex="1" connectable="0"><mxGeometry x="200" y="140" width="120" height="60" as="geometry"/></mxCell><object label="" DEPARTMENT="DEPARTMENT" id="GNEfKHNCvj7tmS5w7Qb4-1"><mxCell style="rounded=0;whiteSpace=wrap;labelBorderColor=none;horizontal=1;gradientColor=none;fillColor=default;html=1;" parent="GNEfKHNCvj7tmS5w7Qb4-5" vertex="1"><mxGeometry width="120" height="60" as="geometry"/></mxCell></object><mxCell id="GNEfKHNCvj7tmS5w7Qb4-2" value="DEPARTMENT" style="text;html=1;strokeColor=none;fillColor=none;align=center;verticalAlign=middle;whiteSpace=wrap;rounded=0;" parent="GNEfKHNCvj7tmS5w7Qb4-5" vertex="1"><mxGeometry x="10" y="12.5" width="100" height="35" as="geometry"/></mxCell><mxCell id="GNEfKHNCvj7tmS5w7Qb4-4" style="edgeStyle=orthogonalEdgeStyle;rounded=0;orthogonalLoop=1;jettySize=auto;html=1;exitX=0.5;exitY=1;exitDx=0;exitDy=0;" parent="GNEfKHNCvj7tmS5w7Qb4-5" source="GNEfKHNCvj7tmS5w7Qb4-2" target="GNEfKHNCvj7tmS5w7Qb4-2" edge="1"><mxGeometry relative="1" as="geometry"/></mxCell><mxCell id="GNEfKHNCvj7tmS5w7Qb4-15" value="" style="group" parent="1" vertex="1" connectable="0"><mxGeometry x="70" y="80" width="120" height="80" as="geometry"/></mxCell><mxCell id="GNEfKHNCvj7tmS5w7Qb4-7" value="" style="ellipse;whiteSpace=wrap;html=1;labelBorderColor=none;fillColor=default;gradientColor=none;" parent="GNEfKHNCvj7tmS5w7Qb4-15" vertex="1"><mxGeometry width="120" height="80" as="geometry"/></mxCell><mxCell id="GNEfKHNCvj7tmS5w7Qb4-12" value="&lt;font color=&quot;#FF0000&quot;&gt;&lt;u&gt;DName&lt;/u&gt;&lt;/font&gt;" style="text;html=1;strokeColor=none;fillColor=none;align=center;verticalAlign=middle;whiteSpace=wrap;rounded=0;labelBorderColor=none;" parent="GNEfKHNCvj7tmS5w7Qb4-15" vertex="1"><mxGeometry x="30" y="25" width="60" height="30" as="geometry"/></mxCell><mxCell id="GNEfKHNCvj7tmS5w7Qb4-17" value="" style="group" parent="1" vertex="1" connectable="0"><mxGeometry x="225" y="20" width="120" height="80" as="geometry"/></mxCell><mxCell id="GNEfKHNCvj7tmS5w7Qb4-6" value="" style="ellipse;whiteSpace=wrap;html=1;labelBorderColor=none;fillColor=default;gradientColor=none;" parent="GNEfKHNCvj7tmS5w7Qb4-17" vertex="1"><mxGeometry width="120" height="80" as="geometry"/></mxCell><mxCell id="GNEfKHNCvj7tmS5w7Qb4-13" value="&lt;div&gt;&lt;u&gt;DNumber&lt;/u&gt;&lt;/div&gt;" style="text;html=1;strokeColor=none;fillColor=none;align=center;verticalAlign=middle;whiteSpace=wrap;rounded=0;labelBorderColor=none;" parent="GNEfKHNCvj7tmS5w7Qb4-17" vertex="1"><mxGeometry x="30" y="25" width="60" height="30" as="geometry"/></mxCell><mxCell id="GNEfKHNCvj7tmS5w7Qb4-18" value="" style="endArrow=none;html=1;rounded=0;entryX=0.5;entryY=1;entryDx=0;entryDy=0;exitX=0.75;exitY=0;exitDx=0;exitDy=0;" parent="1" source="GNEfKHNCvj7tmS5w7Qb4-1" target="GNEfKHNCvj7tmS5w7Qb4-6" edge="1"><mxGeometry width="50" height="50" relative="1" as="geometry"><mxPoint x="320" y="180" as="sourcePoint"/><mxPoint x="370" y="130" as="targetPoint"/></mxGeometry></mxCell><mxCell id="GNEfKHNCvj7tmS5w7Qb4-20" value="" style="rounded=0;orthogonalLoop=1;jettySize=auto;html=1;endArrow=none;endFill=0;" parent="1" source="GNEfKHNCvj7tmS5w7Qb4-7" target="GNEfKHNCvj7tmS5w7Qb4-1" edge="1"><mxGeometry relative="1" as="geometry"/></mxCell><mxCell id="GNEfKHNCvj7tmS5w7Qb4-21" value="" style="group" parent="1" vertex="1" connectable="0"><mxGeometry x="760" y="240" width="120" height="60" as="geometry"/></mxCell><object label="" DEPARTMENT="DEPARTMENT" id="GNEfKHNCvj7tmS5w7Qb4-22"><mxCell style="rounded=0;whiteSpace=wrap;labelBorderColor=none;horizontal=1;gradientColor=none;fillColor=default;html=1;" parent="GNEfKHNCvj7tmS5w7Qb4-21" vertex="1"><mxGeometry width="120" height="60" as="geometry"/></mxCell></object><mxCell id="GNEfKHNCvj7tmS5w7Qb4-23" value="&lt;div&gt;PROJECT&lt;/div&gt;" style="text;html=1;strokeColor=none;fillColor=none;align=center;verticalAlign=middle;whiteSpace=wrap;rounded=0;" parent="GNEfKHNCvj7tmS5w7Qb4-21" vertex="1"><mxGeometry x="10" y="12.5" width="100" height="35" as="geometry"/></mxCell><mxCell id="GNEfKHNCvj7tmS5w7Qb4-24" style="edgeStyle=orthogonalEdgeStyle;rounded=0;orthogonalLoop=1;jettySize=auto;html=1;exitX=0.5;exitY=1;exitDx=0;exitDy=0;" parent="GNEfKHNCvj7tmS5w7Qb4-21" source="GNEfKHNCvj7tmS5w7Qb4-23" target="GNEfKHNCvj7tmS5w7Qb4-23" edge="1"><mxGeometry relative="1" as="geometry"/></mxCell><mxCell id="GNEfKHNCvj7tmS5w7Qb4-25" value="" style="group" parent="1" vertex="1" connectable="0"><mxGeometry x="1010" y="30" width="120" height="80" as="geometry"/></mxCell><mxCell id="GNEfKHNCvj7tmS5w7Qb4-26" value="" style="ellipse;whiteSpace=wrap;html=1;labelBorderColor=none;fillColor=default;gradientColor=none;" parent="GNEfKHNCvj7tmS5w7Qb4-25" vertex="1"><mxGeometry width="120" height="80" as="geometry"/></mxCell><mxCell id="GNEfKHNCvj7tmS5w7Qb4-27" value="&lt;div&gt;Location&lt;/div&gt;" style="text;html=1;strokeColor=none;fillColor=none;align=center;verticalAlign=middle;whiteSpace=wrap;rounded=0;labelBorderColor=none;" parent="GNEfKHNCvj7tmS5w7Qb4-25" vertex="1"><mxGeometry x="30" y="25" width="60" height="30" as="geometry"/></mxCell><mxCell id="GNEfKHNCvj7tmS5w7Qb4-28" value="" style="group" parent="1" vertex="1" connectable="0"><mxGeometry x="1110" y="100" width="120" height="80" as="geometry"/></mxCell><mxCell id="GNEfKHNCvj7tmS5w7Qb4-29" value="" style="ellipse;whiteSpace=wrap;html=1;labelBorderColor=none;fillColor=default;gradientColor=none;" parent="GNEfKHNCvj7tmS5w7Qb4-28" vertex="1"><mxGeometry width="120" height="80" as="geometry"/></mxCell><mxCell id="GNEfKHNCvj7tmS5w7Qb4-30" value="&lt;div&gt;&lt;u&gt;Name&lt;/u&gt;&lt;/div&gt;" style="text;html=1;strokeColor=none;fillColor=none;align=center;verticalAlign=middle;whiteSpace=wrap;rounded=0;labelBorderColor=none;" parent="GNEfKHNCvj7tmS5w7Qb4-28" vertex="1"><mxGeometry x="30" y="25" width="60" height="30" as="geometry"/></mxCell><mxCell id="GNEfKHNCvj7tmS5w7Qb4-31" value="" style="group" parent="1" vertex="1" connectable="0"><mxGeometry x="1150" y="220" width="120" height="80" as="geometry"/></mxCell><mxCell id="GNEfKHNCvj7tmS5w7Qb4-32" value="" style="ellipse;whiteSpace=wrap;html=1;labelBorderColor=none;fillColor=default;gradientColor=none;" parent="GNEfKHNCvj7tmS5w7Qb4-31" vertex="1"><mxGeometry width="120" height="80" as="geometry"/></mxCell><mxCell id="GNEfKHNCvj7tmS5w7Qb4-33" value="&lt;div&gt;&lt;font color=&quot;#FF0000&quot;&gt;&lt;u&gt;Number&lt;/u&gt;&lt;/font&gt;&lt;/div&gt;" style="text;html=1;strokeColor=none;fillColor=none;align=center;verticalAlign=middle;whiteSpace=wrap;rounded=0;labelBorderColor=none;" parent="GNEfKHNCvj7tmS5w7Qb4-31" vertex="1"><mxGeometry x="30" y="25" width="60" height="30" as="geometry"/></mxCell><mxCell id="GNEfKHNCvj7tmS5w7Qb4-34" value="" style="endArrow=none;html=1;rounded=0;entryX=0.5;entryY=1;entryDx=0;entryDy=0;" parent="1" target="GNEfKHNCvj7tmS5w7Qb4-32" edge="1"><mxGeometry width="50" height="50" relative="1" as="geometry"><mxPoint x="880" y="280" as="sourcePoint"/><mxPoint x="930" y="230" as="targetPoint"/></mxGeometry></mxCell><mxCell id="GNEfKHNCvj7tmS5w7Qb4-35" value="" style="endArrow=none;html=1;rounded=0;entryX=0.05;entryY=0.75;entryDx=0;entryDy=0;exitX=0.25;exitY=0;exitDx=0;exitDy=0;entryPerimeter=0;" parent="1" source="GNEfKHNCvj7tmS5w7Qb4-22" target="GNEfKHNCvj7tmS5w7Qb4-26" edge="1"><mxGeometry width="50" height="50" relative="1" as="geometry"><mxPoint x="540" y="280" as="sourcePoint"/><mxPoint x="670" y="210" as="targetPoint"/></mxGeometry></mxCell><mxCell id="GNEfKHNCvj7tmS5w7Qb4-36" value="" style="rounded=0;orthogonalLoop=1;jettySize=auto;html=1;endArrow=none;endFill=0;" parent="1" source="GNEfKHNCvj7tmS5w7Qb4-29" target="GNEfKHNCvj7tmS5w7Qb4-22" edge="1"><mxGeometry relative="1" as="geometry"/></mxCell><mxCell id="GNEfKHNCvj7tmS5w7Qb4-51" value="" style="group" parent="1" vertex="1" connectable="0"><mxGeometry x="220" y="500" width="120" height="60" as="geometry"/></mxCell><object label="" DEPARTMENT="DEPARTMENT" id="GNEfKHNCvj7tmS5w7Qb4-52"><mxCell style="rounded=0;whiteSpace=wrap;labelBorderColor=none;horizontal=1;gradientColor=none;fillColor=default;html=1;" parent="GNEfKHNCvj7tmS5w7Qb4-51" vertex="1"><mxGeometry width="120" height="60" as="geometry"/></mxCell></object><mxCell id="GNEfKHNCvj7tmS5w7Qb4-53" value="&lt;div&gt;EMPLOYEE&lt;/div&gt;" style="text;html=1;strokeColor=none;fillColor=none;align=center;verticalAlign=middle;whiteSpace=wrap;rounded=0;" parent="GNEfKHNCvj7tmS5w7Qb4-51" vertex="1"><mxGeometry x="10" y="12.5" width="100" height="35" as="geometry"/></mxCell><mxCell id="GNEfKHNCvj7tmS5w7Qb4-54" style="edgeStyle=orthogonalEdgeStyle;rounded=0;orthogonalLoop=1;jettySize=auto;html=1;exitX=0.5;exitY=1;exitDx=0;exitDy=0;" parent="GNEfKHNCvj7tmS5w7Qb4-51" source="GNEfKHNCvj7tmS5w7Qb4-53" target="GNEfKHNCvj7tmS5w7Qb4-53" edge="1"><mxGeometry relative="1" as="geometry"/></mxCell><mxCell id="GNEfKHNCvj7tmS5w7Qb4-55" value="" style="group" parent="1" vertex="1" connectable="0"><mxGeometry x="-280" y="340" width="120" height="80" as="geometry"/></mxCell><mxCell id="GNEfKHNCvj7tmS5w7Qb4-56" value="" style="ellipse;whiteSpace=wrap;html=1;labelBorderColor=none;fillColor=default;gradientColor=none;" parent="GNEfKHNCvj7tmS5w7Qb4-55" vertex="1"><mxGeometry width="120" height="80" as="geometry"/></mxCell><mxCell id="GNEfKHNCvj7tmS5w7Qb4-57" value="&lt;font color=&quot;#FF0000&quot;&gt;&lt;u&gt;SSN&lt;/u&gt;&lt;/font&gt;" style="text;html=1;strokeColor=none;fillColor=none;align=center;verticalAlign=middle;whiteSpace=wrap;rounded=0;labelBorderColor=none;" parent="GNEfKHNCvj7tmS5w7Qb4-55" vertex="1"><mxGeometry x="30" y="25" width="60" height="30" as="geometry"/></mxCell><mxCell id="GNEfKHNCvj7tmS5w7Qb4-58" value="" style="group" parent="1" vertex="1" connectable="0"><mxGeometry x="-130" y="340" width="120" height="80" as="geometry"/></mxCell><mxCell id="GNEfKHNCvj7tmS5w7Qb4-59" value="" style="ellipse;whiteSpace=wrap;html=1;labelBorderColor=none;fillColor=default;gradientColor=none;" parent="GNEfKHNCvj7tmS5w7Qb4-58" vertex="1"><mxGeometry width="120" height="80" as="geometry"/></mxCell><mxCell id="GNEfKHNCvj7tmS5w7Qb4-60" value="&lt;div&gt;FName&lt;/div&gt;" style="text;html=1;strokeColor=none;fillColor=none;align=center;verticalAlign=middle;whiteSpace=wrap;rounded=0;labelBorderColor=none;" parent="GNEfKHNCvj7tmS5w7Qb4-58" vertex="1"><mxGeometry x="30" y="25" width="60" height="30" as="geometry"/></mxCell><mxCell id="GNEfKHNCvj7tmS5w7Qb4-61" value="" style="group" parent="1" vertex="1" connectable="0"><mxGeometry x="-660" y="340" width="120" height="80" as="geometry"/></mxCell><mxCell id="GNEfKHNCvj7tmS5w7Qb4-62" value="" style="ellipse;whiteSpace=wrap;html=1;labelBorderColor=none;fillColor=default;gradientColor=none;" parent="GNEfKHNCvj7tmS5w7Qb4-61" vertex="1"><mxGeometry width="120" height="80" as="geometry"/></mxCell><mxCell id="GNEfKHNCvj7tmS5w7Qb4-63" value="Address" style="text;html=1;strokeColor=none;fillColor=none;align=center;verticalAlign=middle;whiteSpace=wrap;rounded=0;labelBorderColor=none;" parent="GNEfKHNCvj7tmS5w7Qb4-61" vertex="1"><mxGeometry x="30" y="25" width="60" height="30" as="geometry"/></mxCell><mxCell id="GNEfKHNCvj7tmS5w7Qb4-64" value="" style="endArrow=none;html=1;rounded=0;entryX=0.5;entryY=1;entryDx=0;entryDy=0;exitX=0;exitY=0.5;exitDx=0;exitDy=0;" parent="1" source="GNEfKHNCvj7tmS5w7Qb4-52" target="GNEfKHNCvj7tmS5w7Qb4-62" edge="1"><mxGeometry width="50" height="50" relative="1" as="geometry"><mxPoint x="340" y="510" as="sourcePoint"/><mxPoint x="390" y="460" as="targetPoint"/></mxGeometry></mxCell><mxCell id="GNEfKHNCvj7tmS5w7Qb4-65" value="" style="endArrow=none;html=1;rounded=0;entryX=1;entryY=1;entryDx=0;entryDy=0;exitX=0;exitY=0.25;exitDx=0;exitDy=0;" parent="1" source="GNEfKHNCvj7tmS5w7Qb4-52" target="GNEfKHNCvj7tmS5w7Qb4-56" edge="1"><mxGeometry width="50" height="50" relative="1" as="geometry"><mxPoint y="510" as="sourcePoint"/><mxPoint x="130" y="440" as="targetPoint"/></mxGeometry></mxCell><mxCell id="GNEfKHNCvj7tmS5w7Qb4-66" value="" style="rounded=0;orthogonalLoop=1;jettySize=auto;html=1;endArrow=none;endFill=0;" parent="1" source="GNEfKHNCvj7tmS5w7Qb4-59" target="GNEfKHNCvj7tmS5w7Qb4-52" edge="1"><mxGeometry relative="1" as="geometry"/></mxCell><mxCell id="GNEfKHNCvj7tmS5w7Qb4-68" value="" style="group" parent="1" vertex="1" connectable="0"><mxGeometry x="-300" y="480" width="120" height="80" as="geometry"/></mxCell><mxCell id="GNEfKHNCvj7tmS5w7Qb4-69" value="" style="ellipse;whiteSpace=wrap;html=1;labelBorderColor=none;fillColor=default;gradientColor=none;" parent="GNEfKHNCvj7tmS5w7Qb4-68" vertex="1"><mxGeometry width="120" height="80" as="geometry"/></mxCell><mxCell id="GNEfKHNCvj7tmS5w7Qb4-70" value="Bdate" style="text;html=1;strokeColor=none;fillColor=none;align=center;verticalAlign=middle;whiteSpace=wrap;rounded=0;labelBorderColor=none;" parent="GNEfKHNCvj7tmS5w7Qb4-68" vertex="1"><mxGeometry x="30" y="25" width="60" height="30" as="geometry"/></mxCell><mxCell id="GNEfKHNCvj7tmS5w7Qb4-71" value="" style="group" parent="1" vertex="1" connectable="0"><mxGeometry x="-180" y="540" width="120" height="80" as="geometry"/></mxCell><mxCell id="GNEfKHNCvj7tmS5w7Qb4-72" value="" style="ellipse;whiteSpace=wrap;html=1;labelBorderColor=none;fillColor=default;gradientColor=none;" parent="GNEfKHNCvj7tmS5w7Qb4-71" vertex="1"><mxGeometry width="120" height="80" as="geometry"/></mxCell><mxCell id="GNEfKHNCvj7tmS5w7Qb4-73" value="Sex" style="text;html=1;strokeColor=none;fillColor=none;align=center;verticalAlign=middle;whiteSpace=wrap;rounded=0;labelBorderColor=none;" parent="GNEfKHNCvj7tmS5w7Qb4-71" vertex="1"><mxGeometry x="30" y="25" width="60" height="30" as="geometry"/></mxCell><mxCell id="GNEfKHNCvj7tmS5w7Qb4-74" value="" style="group" parent="1" vertex="1" connectable="0"><mxGeometry x="-280" y="690" width="120" height="80" as="geometry"/></mxCell><mxCell id="GNEfKHNCvj7tmS5w7Qb4-75" value="" style="ellipse;whiteSpace=wrap;html=1;labelBorderColor=none;fillColor=default;gradientColor=none;" parent="GNEfKHNCvj7tmS5w7Qb4-74" vertex="1"><mxGeometry width="120" height="80" as="geometry"/></mxCell><mxCell id="GNEfKHNCvj7tmS5w7Qb4-76" value="Salary" style="text;html=1;strokeColor=none;fillColor=none;align=center;verticalAlign=middle;whiteSpace=wrap;rounded=0;labelBorderColor=none;" parent="GNEfKHNCvj7tmS5w7Qb4-74" vertex="1"><mxGeometry x="30" y="25" width="60" height="30" as="geometry"/></mxCell><mxCell id="GNEfKHNCvj7tmS5w7Qb4-77" value="" style="group" parent="1" vertex="1" connectable="0"><mxGeometry x="-310" y="580" width="120" height="80" as="geometry"/></mxCell><mxCell id="GNEfKHNCvj7tmS5w7Qb4-78" value="" style="ellipse;whiteSpace=wrap;html=1;labelBorderColor=none;fillColor=default;gradientColor=none;" parent="GNEfKHNCvj7tmS5w7Qb4-77" vertex="1"><mxGeometry width="120" height="80" as="geometry"/></mxCell><mxCell id="GNEfKHNCvj7tmS5w7Qb4-79" value="LName" style="text;html=1;strokeColor=none;fillColor=none;align=center;verticalAlign=middle;whiteSpace=wrap;rounded=0;labelBorderColor=none;" parent="GNEfKHNCvj7tmS5w7Qb4-77" vertex="1"><mxGeometry x="30" y="25" width="60" height="30" as="geometry"/></mxCell><mxCell id="GNEfKHNCvj7tmS5w7Qb4-80" value="" style="endArrow=none;html=1;rounded=0;exitX=1;exitY=0.425;exitDx=0;exitDy=0;entryX=0;entryY=0.75;entryDx=0;entryDy=0;exitPerimeter=0;" parent="1" source="GNEfKHNCvj7tmS5w7Qb4-72" target="GNEfKHNCvj7tmS5w7Qb4-52" edge="1"><mxGeometry width="50" height="50" relative="1" as="geometry"><mxPoint x="280" y="560" as="sourcePoint"/><mxPoint x="260" y="540" as="targetPoint"/></mxGeometry></mxCell><mxCell id="GNEfKHNCvj7tmS5w7Qb4-81" value="" style="endArrow=none;html=1;rounded=0;entryX=0;entryY=1;entryDx=0;entryDy=0;exitX=0.942;exitY=0.725;exitDx=0;exitDy=0;exitPerimeter=0;" parent="1" source="GNEfKHNCvj7tmS5w7Qb4-78" target="GNEfKHNCvj7tmS5w7Qb4-52" edge="1"><mxGeometry width="50" height="50" relative="1" as="geometry"><mxPoint x="530" y="480" as="sourcePoint"/><mxPoint x="580" y="430" as="targetPoint"/></mxGeometry></mxCell><mxCell id="GNEfKHNCvj7tmS5w7Qb4-82" value="" style="endArrow=none;html=1;rounded=0;entryX=0;entryY=0.633;entryDx=0;entryDy=0;exitX=1;exitY=0.5;exitDx=0;exitDy=0;entryPerimeter=0;" parent="1" source="GNEfKHNCvj7tmS5w7Qb4-69" target="GNEfKHNCvj7tmS5w7Qb4-52" edge="1"><mxGeometry width="50" height="50" relative="1" as="geometry"><mxPoint x="350" y="600" as="sourcePoint"/><mxPoint x="400" y="550" as="targetPoint"/></mxGeometry></mxCell><mxCell id="GNEfKHNCvj7tmS5w7Qb4-83" value="" style="endArrow=none;html=1;rounded=0;entryX=0.167;entryY=1;entryDx=0;entryDy=0;exitX=0.725;exitY=0.05;exitDx=0;exitDy=0;exitPerimeter=0;entryPerimeter=0;" parent="1" source="GNEfKHNCvj7tmS5w7Qb4-75" target="GNEfKHNCvj7tmS5w7Qb4-52" edge="1"><mxGeometry width="50" height="50" relative="1" as="geometry"><mxPoint x="150" y="560" as="sourcePoint"/><mxPoint x="200" y="510" as="targetPoint"/></mxGeometry></mxCell><mxCell id="GNEfKHNCvj7tmS5w7Qb4-88" value="" style="group" parent="1" vertex="1" connectable="0"><mxGeometry x="930" y="580" width="120" height="60" as="geometry"/></mxCell><object label="" DEPARTMENT="DEPARTMENT" id="GNEfKHNCvj7tmS5w7Qb4-89"><mxCell style="rounded=0;whiteSpace=wrap;labelBorderColor=none;horizontal=1;gradientColor=none;fillColor=default;html=1;" parent="GNEfKHNCvj7tmS5w7Qb4-88" vertex="1"><mxGeometry width="120" height="60" as="geometry"/></mxCell></object><mxCell id="GNEfKHNCvj7tmS5w7Qb4-90" value="&lt;div&gt;DEPNDENT&lt;/div&gt;" style="text;html=1;strokeColor=none;fillColor=none;align=center;verticalAlign=middle;whiteSpace=wrap;rounded=0;" parent="GNEfKHNCvj7tmS5w7Qb4-88" vertex="1"><mxGeometry x="10" y="12.5" width="100" height="35" as="geometry"/></mxCell><mxCell id="GNEfKHNCvj7tmS5w7Qb4-91" style="edgeStyle=orthogonalEdgeStyle;rounded=0;orthogonalLoop=1;jettySize=auto;html=1;exitX=0.5;exitY=1;exitDx=0;exitDy=0;" parent="GNEfKHNCvj7tmS5w7Qb4-88" source="GNEfKHNCvj7tmS5w7Qb4-90" target="GNEfKHNCvj7tmS5w7Qb4-90" edge="1"><mxGeometry relative="1" as="geometry"/></mxCell><mxCell id="GNEfKHNCvj7tmS5w7Qb4-92" value="" style="group" parent="1" vertex="1" connectable="0"><mxGeometry x="1120" y="425" width="120" height="80" as="geometry"/></mxCell><mxCell id="GNEfKHNCvj7tmS5w7Qb4-93" value="" style="ellipse;whiteSpace=wrap;html=1;labelBorderColor=none;fillColor=default;gradientColor=none;" parent="GNEfKHNCvj7tmS5w7Qb4-92" vertex="1"><mxGeometry width="120" height="80" as="geometry"/></mxCell><mxCell id="GNEfKHNCvj7tmS5w7Qb4-94" value="Relationship" style="text;html=1;strokeColor=none;fillColor=none;align=center;verticalAlign=middle;whiteSpace=wrap;rounded=0;labelBorderColor=none;" parent="GNEfKHNCvj7tmS5w7Qb4-92" vertex="1"><mxGeometry x="25" y="25" width="70" height="30" as="geometry"/></mxCell><mxCell id="GNEfKHNCvj7tmS5w7Qb4-95" value="" style="group" parent="1" vertex="1" connectable="0"><mxGeometry x="1260" y="465" width="120" height="80" as="geometry"/></mxCell><mxCell id="GNEfKHNCvj7tmS5w7Qb4-96" value="Name" style="ellipse;whiteSpace=wrap;html=1;labelBorderColor=none;fillColor=default;gradientColor=none;" parent="GNEfKHNCvj7tmS5w7Qb4-95" vertex="1"><mxGeometry width="120" height="80" as="geometry"/></mxCell><mxCell id="GNEfKHNCvj7tmS5w7Qb4-103" value="" style="rounded=0;orthogonalLoop=1;jettySize=auto;html=1;endArrow=none;endFill=0;" parent="1" source="GNEfKHNCvj7tmS5w7Qb4-96" target="GNEfKHNCvj7tmS5w7Qb4-89" edge="1"><mxGeometry relative="1" as="geometry"/></mxCell><mxCell id="GNEfKHNCvj7tmS5w7Qb4-104" value="" style="group" parent="1" vertex="1" connectable="0"><mxGeometry x="1180" y="705" width="120" height="80" as="geometry"/></mxCell><mxCell id="GNEfKHNCvj7tmS5w7Qb4-105" value="" style="ellipse;whiteSpace=wrap;html=1;labelBorderColor=none;fillColor=default;gradientColor=none;" parent="GNEfKHNCvj7tmS5w7Qb4-104" vertex="1"><mxGeometry width="120" height="80" as="geometry"/></mxCell><mxCell id="GNEfKHNCvj7tmS5w7Qb4-106" value="Birth_date" style="text;html=1;strokeColor=none;fillColor=none;align=center;verticalAlign=middle;whiteSpace=wrap;rounded=0;labelBorderColor=none;" parent="GNEfKHNCvj7tmS5w7Qb4-104" vertex="1"><mxGeometry x="30" y="25" width="60" height="30" as="geometry"/></mxCell><mxCell id="GNEfKHNCvj7tmS5w7Qb4-107" value="" style="group" parent="1" vertex="1" connectable="0"><mxGeometry x="1050" y="730" width="120" height="80" as="geometry"/></mxCell><mxCell id="GNEfKHNCvj7tmS5w7Qb4-108" value="" style="ellipse;whiteSpace=wrap;html=1;labelBorderColor=none;fillColor=default;gradientColor=none;" parent="GNEfKHNCvj7tmS5w7Qb4-107" vertex="1"><mxGeometry width="120" height="80" as="geometry"/></mxCell><mxCell id="GNEfKHNCvj7tmS5w7Qb4-109" value="Sex" style="text;html=1;strokeColor=none;fillColor=none;align=center;verticalAlign=middle;whiteSpace=wrap;rounded=0;labelBorderColor=none;" parent="GNEfKHNCvj7tmS5w7Qb4-107" vertex="1"><mxGeometry x="30" y="25" width="60" height="30" as="geometry"/></mxCell><mxCell id="GNEfKHNCvj7tmS5w7Qb4-116" value="" style="endArrow=none;html=1;rounded=0;exitX=0.592;exitY=0.013;exitDx=0;exitDy=0;entryX=0.5;entryY=1;entryDx=0;entryDy=0;exitPerimeter=0;" parent="1" source="GNEfKHNCvj7tmS5w7Qb4-108" target="GNEfKHNCvj7tmS5w7Qb4-89" edge="1"><mxGeometry width="50" height="50" relative="1" as="geometry"><mxPoint x="800" y="640" as="sourcePoint"/><mxPoint x="780" y="620" as="targetPoint"/></mxGeometry></mxCell><mxCell id="GNEfKHNCvj7tmS5w7Qb4-118" value="" style="endArrow=none;html=1;rounded=0;entryX=0.75;entryY=1;entryDx=0;entryDy=0;exitX=0.042;exitY=0.313;exitDx=0;exitDy=0;exitPerimeter=0;" parent="1" source="GNEfKHNCvj7tmS5w7Qb4-105" target="GNEfKHNCvj7tmS5w7Qb4-89" edge="1"><mxGeometry width="50" height="50" relative="1" as="geometry"><mxPoint x="870" y="680" as="sourcePoint"/><mxPoint x="920" y="630" as="targetPoint"/></mxGeometry></mxCell><mxCell id="GNEfKHNCvj7tmS5w7Qb4-129" value="" style="group" parent="1" vertex="1" connectable="0"><mxGeometry x="-480" y="340" width="120" height="80" as="geometry"/></mxCell><mxCell id="GNEfKHNCvj7tmS5w7Qb4-127" value="" style="ellipse;whiteSpace=wrap;html=1;labelBorderColor=none;fillColor=default;gradientColor=none;" parent="GNEfKHNCvj7tmS5w7Qb4-129" vertex="1"><mxGeometry width="120" height="80" as="geometry"/></mxCell><mxCell id="GNEfKHNCvj7tmS5w7Qb4-128" value="Minit" style="text;html=1;strokeColor=none;fillColor=none;align=center;verticalAlign=middle;whiteSpace=wrap;rounded=0;labelBorderColor=none;" parent="GNEfKHNCvj7tmS5w7Qb4-129" vertex="1"><mxGeometry x="30" y="25" width="60" height="30" as="geometry"/></mxCell><mxCell id="GNEfKHNCvj7tmS5w7Qb4-130" value="" style="endArrow=none;html=1;rounded=0;fontColor=#FF0000;exitX=0.908;exitY=0.813;exitDx=0;exitDy=0;exitPerimeter=0;" parent="1" source="GNEfKHNCvj7tmS5w7Qb4-127" edge="1"><mxGeometry width="50" height="50" relative="1" as="geometry"><mxPoint x="150" y="496" as="sourcePoint"/><mxPoint x="220" y="520" as="targetPoint"/></mxGeometry></mxCell><mxCell id="8" style="rounded=0;orthogonalLoop=1;jettySize=auto;html=1;entryX=0.633;entryY=-0.017;entryDx=0;entryDy=0;endArrow=none;endFill=0;entryPerimeter=0;" parent="1" source="GNEfKHNCvj7tmS5w7Qb4-93" target="GNEfKHNCvj7tmS5w7Qb4-89" edge="1"><mxGeometry relative="1" as="geometry"/></mxCell><mxCell id="17" style="edgeStyle=none;rounded=0;orthogonalLoop=1;jettySize=auto;html=1;entryX=0.017;entryY=0.867;entryDx=0;entryDy=0;entryPerimeter=0;endArrow=none;endFill=0;" parent="1" source="9" target="GNEfKHNCvj7tmS5w7Qb4-89" edge="1"><mxGeometry relative="1" as="geometry"/></mxCell><mxCell id="9" value="DEPENDS_OF" style="rhombus;whiteSpace=wrap;html=1;" parent="1" vertex="1"><mxGeometry x="505" y="535" width="190" height="90" as="geometry"/></mxCell><mxCell id="16" style="edgeStyle=none;rounded=0;orthogonalLoop=1;jettySize=auto;html=1;entryX=0.195;entryY=0.3;entryDx=0;entryDy=0;entryPerimeter=0;endArrow=none;endFill=0;" parent="1" source="GNEfKHNCvj7tmS5w7Qb4-52" target="9" edge="1"><mxGeometry relative="1" as="geometry"/></mxCell><mxCell id="18" style="edgeStyle=none;rounded=0;orthogonalLoop=1;jettySize=auto;html=1;entryX=0;entryY=1;entryDx=0;entryDy=0;endArrow=none;endFill=0;exitX=0.805;exitY=0.689;exitDx=0;exitDy=0;exitPerimeter=0;" parent="1" source="9" target="GNEfKHNCvj7tmS5w7Qb4-89" edge="1"><mxGeometry relative="1" as="geometry"><mxPoint x="586.9453594094712" y="668.8162228781705" as="sourcePoint"/><mxPoint x="942.04" y="642.02" as="targetPoint"/></mxGeometry></mxCell><mxCell id="19" value="1" style="text;html=1;strokeColor=none;fillColor=none;align=center;verticalAlign=middle;whiteSpace=wrap;rounded=0;" parent="1" vertex="1"><mxGeometry x="640" y="610" width="60" height="30" as="geometry"/></mxCell><mxCell id="20" value="N" style="text;html=1;align=center;verticalAlign=middle;resizable=0;points=[];autosize=1;strokeColor=none;fillColor=none;" parent="1" vertex="1"><mxGeometry x="500" y="530" width="30" height="30" as="geometry"/></mxCell><mxCell id="24" style="edgeStyle=none;rounded=0;orthogonalLoop=1;jettySize=auto;html=1;entryX=1;entryY=0.25;entryDx=0;entryDy=0;endArrow=none;endFill=0;" parent="1" source="22" target="GNEfKHNCvj7tmS5w7Qb4-52" edge="1"><mxGeometry relative="1" as="geometry"/></mxCell><mxCell id="25" style="edgeStyle=none;rounded=0;orthogonalLoop=1;jettySize=auto;html=1;entryX=1;entryY=0.5;entryDx=0;entryDy=0;endArrow=none;endFill=0;" parent="1" source="22" target="GNEfKHNCvj7tmS5w7Qb4-52" edge="1"><mxGeometry relative="1" as="geometry"/></mxCell><mxCell id="26" style="edgeStyle=none;rounded=0;orthogonalLoop=1;jettySize=auto;html=1;entryX=0;entryY=0.75;entryDx=0;entryDy=0;endArrow=none;endFill=0;" parent="1" source="22" target="GNEfKHNCvj7tmS5w7Qb4-22" edge="1"><mxGeometry relative="1" as="geometry"/></mxCell><mxCell id="27" style="edgeStyle=none;rounded=0;orthogonalLoop=1;jettySize=auto;html=1;entryX=0;entryY=1;entryDx=0;entryDy=0;endArrow=none;endFill=0;exitX=0.8;exitY=0.3;exitDx=0;exitDy=0;exitPerimeter=0;" parent="1" source="22" target="GNEfKHNCvj7tmS5w7Qb4-22" edge="1"><mxGeometry relative="1" as="geometry"/></mxCell><mxCell id="22" value="WORKS_ON" style="rhombus;whiteSpace=wrap;html=1;" parent="1" vertex="1"><mxGeometry x="435" y="390" width="150" height="90" as="geometry"/></mxCell><mxCell id="28" value="M" style="text;html=1;strokeColor=none;fillColor=none;align=center;verticalAlign=middle;whiteSpace=wrap;rounded=0;" parent="1" vertex="1"><mxGeometry x="530" y="370" width="60" height="30" as="geometry"/></mxCell><mxCell id="31" value="N" style="text;html=1;align=center;verticalAlign=middle;resizable=0;points=[];autosize=1;strokeColor=none;fillColor=none;" parent="1" vertex="1"><mxGeometry x="415" y="445" width="30" height="30" as="geometry"/></mxCell><mxCell id="38" style="edgeStyle=none;rounded=0;orthogonalLoop=1;jettySize=auto;html=1;entryX=1;entryY=0.75;entryDx=0;entryDy=0;endArrow=none;endFill=0;exitX=1;exitY=0.5;exitDx=0;exitDy=0;" parent="1" source="35" target="GNEfKHNCvj7tmS5w7Qb4-52" edge="1"><mxGeometry relative="1" as="geometry"/></mxCell><mxCell id="39" style="edgeStyle=none;rounded=0;orthogonalLoop=1;jettySize=auto;html=1;endArrow=none;endFill=0;exitX=0;exitY=0.5;exitDx=0;exitDy=0;" parent="1" source="35" edge="1"><mxGeometry relative="1" as="geometry"><mxPoint x="260" y="560" as="targetPoint"/></mxGeometry></mxCell><mxCell id="54" style="edgeStyle=none;rounded=0;orthogonalLoop=1;jettySize=auto;html=1;endArrow=none;endFill=0;exitX=0.924;exitY=0.438;exitDx=0;exitDy=0;exitPerimeter=0;" parent="1" source="35" edge="1"><mxGeometry relative="1" as="geometry"><mxPoint x="330" y="560" as="targetPoint"/></mxGeometry></mxCell><mxCell id="35" value="Supervising" style="rhombus;whiteSpace=wrap;html=1;" parent="1" vertex="1"><mxGeometry x="180" y="720" width="210" height="80" as="geometry"/></mxCell><mxCell id="40" value="Supervisor" style="text;html=1;align=center;verticalAlign=middle;resizable=0;points=[];autosize=1;strokeColor=none;fillColor=none;" parent="1" vertex="1"><mxGeometry x="100" y="710" width="80" height="30" as="geometry"/></mxCell><mxCell id="41" value="N" style="text;html=1;align=center;verticalAlign=middle;resizable=0;points=[];autosize=1;strokeColor=none;fillColor=none;" parent="1" vertex="1"><mxGeometry x="125" y="735" width="30" height="30" as="geometry"/></mxCell><mxCell id="42" value="Supervisee" style="text;html=1;align=center;verticalAlign=middle;resizable=0;points=[];autosize=1;strokeColor=none;fillColor=none;" parent="1" vertex="1"><mxGeometry x="380" y="705" width="80" height="30" as="geometry"/></mxCell><mxCell id="43" value="1" style="text;html=1;align=center;verticalAlign=middle;resizable=0;points=[];autosize=1;strokeColor=none;fillColor=none;" parent="1" vertex="1"><mxGeometry x="395" y="735" width="30" height="30" as="geometry"/></mxCell><mxCell id="53" style="edgeStyle=none;rounded=0;orthogonalLoop=1;jettySize=auto;html=1;entryX=0;entryY=0.5;entryDx=0;entryDy=0;endArrow=none;endFill=0;" parent="1" source="49" target="GNEfKHNCvj7tmS5w7Qb4-22" edge="1"><mxGeometry relative="1" as="geometry"/></mxCell><mxCell id="49" value="CONTROLS" style="rhombus;whiteSpace=wrap;html=1;" parent="1" vertex="1"><mxGeometry x="445" y="190" width="185" height="80" as="geometry"/></mxCell><mxCell id="52" style="edgeStyle=none;rounded=0;orthogonalLoop=1;jettySize=auto;html=1;entryX=0;entryY=0.5;entryDx=0;entryDy=0;endArrow=none;endFill=0;exitX=1;exitY=0;exitDx=0;exitDy=0;" parent="1" source="GNEfKHNCvj7tmS5w7Qb4-1" target="49" edge="1"><mxGeometry relative="1" as="geometry"/></mxCell><mxCell id="58" style="edgeStyle=none;rounded=0;orthogonalLoop=1;jettySize=auto;html=1;entryX=1;entryY=0.5;entryDx=0;entryDy=0;endArrow=none;endFill=0;exitX=0;exitY=0.25;exitDx=0;exitDy=0;" parent="1" source="GNEfKHNCvj7tmS5w7Qb4-22" target="49" edge="1"><mxGeometry relative="1" as="geometry"/></mxCell><mxCell id="61" value="1" style="text;html=1;align=center;verticalAlign=middle;resizable=0;points=[];autosize=1;strokeColor=none;fillColor=none;" parent="1" vertex="1"><mxGeometry x="625" y="195" width="30" height="30" as="geometry"/></mxCell><mxCell id="62" value="N" style="text;html=1;align=center;verticalAlign=middle;resizable=0;points=[];autosize=1;strokeColor=none;fillColor=none;" parent="1" vertex="1"><mxGeometry x="415" y="195" width="30" height="30" as="geometry"/></mxCell><mxCell id="63" value="WORKS_FOR" style="rhombus;whiteSpace=wrap;html=1;" parent="1" vertex="1"><mxGeometry x="100" y="300" width="140" height="80" as="geometry"/></mxCell><mxCell id="75" style="edgeStyle=none;rounded=0;orthogonalLoop=1;jettySize=auto;html=1;entryX=0.933;entryY=1;entryDx=0;entryDy=0;entryPerimeter=0;endArrow=none;endFill=0;" parent="1" source="64" target="GNEfKHNCvj7tmS5w7Qb4-1" edge="1"><mxGeometry relative="1" as="geometry"/></mxCell><mxCell id="78" style="edgeStyle=none;rounded=0;orthogonalLoop=1;jettySize=auto;html=1;entryX=1;entryY=1;entryDx=0;entryDy=0;endArrow=none;endFill=0;" parent="1" source="64" target="GNEfKHNCvj7tmS5w7Qb4-1" edge="1"><mxGeometry relative="1" as="geometry"/></mxCell><mxCell id="81" style="edgeStyle=none;rounded=0;orthogonalLoop=1;jettySize=auto;html=1;endArrow=none;endFill=0;" parent="1" source="64" edge="1"><mxGeometry relative="1" as="geometry"><mxPoint x="330" y="300" as="targetPoint"/></mxGeometry></mxCell><mxCell id="64" value="MANAGES" style="rhombus;whiteSpace=wrap;html=1;" parent="1" vertex="1"><mxGeometry x="370" y="290" width="140" height="80" as="geometry"/></mxCell><mxCell id="65" style="rounded=0;orthogonalLoop=1;jettySize=auto;html=1;entryX=0.5;entryY=1;entryDx=0;entryDy=0;endArrow=none;endFill=0;" parent="1" source="GNEfKHNCvj7tmS5w7Qb4-52" target="63" edge="1"><mxGeometry relative="1" as="geometry"/></mxCell><mxCell id="66" style="edgeStyle=none;rounded=0;orthogonalLoop=1;jettySize=auto;html=1;entryX=0.5;entryY=1;entryDx=0;entryDy=0;endArrow=none;endFill=0;" parent="1" source="GNEfKHNCvj7tmS5w7Qb4-52" target="64" edge="1"><mxGeometry relative="1" as="geometry"/></mxCell><mxCell id="67" style="edgeStyle=none;rounded=0;orthogonalLoop=1;jettySize=auto;html=1;endArrow=none;endFill=0;exitX=0.5;exitY=0;exitDx=0;exitDy=0;" parent="1" source="GNEfKHNCvj7tmS5w7Qb4-52" target="63" edge="1"><mxGeometry relative="1" as="geometry"/></mxCell><mxCell id="69" style="edgeStyle=none;rounded=0;orthogonalLoop=1;jettySize=auto;html=1;entryX=0.5;entryY=0;entryDx=0;entryDy=0;endArrow=none;endFill=0;" parent="1" source="GNEfKHNCvj7tmS5w7Qb4-1" target="63" edge="1"><mxGeometry relative="1" as="geometry"/></mxCell><mxCell id="70" style="edgeStyle=none;rounded=0;orthogonalLoop=1;jettySize=auto;html=1;entryX=0.571;entryY=0.1;entryDx=0;entryDy=0;entryPerimeter=0;endArrow=none;endFill=0;" parent="1" source="GNEfKHNCvj7tmS5w7Qb4-1" target="63" edge="1"><mxGeometry relative="1" as="geometry"/></mxCell><mxCell id="71" value="N" style="text;html=1;align=center;verticalAlign=middle;resizable=0;points=[];autosize=1;strokeColor=none;fillColor=none;" parent="1" vertex="1"><mxGeometry x="135" y="255" width="30" height="30" as="geometry"/></mxCell><mxCell id="72" value="1" style="text;html=1;align=center;verticalAlign=middle;resizable=0;points=[];autosize=1;strokeColor=none;fillColor=none;" parent="1" vertex="1"><mxGeometry x="195" y="365" width="30" height="30" as="geometry"/></mxCell><mxCell id="73" value="1" style="text;html=1;align=center;verticalAlign=middle;resizable=0;points=[];autosize=1;strokeColor=none;fillColor=none;" parent="1" vertex="1"><mxGeometry x="395" y="360" width="30" height="30" as="geometry"/></mxCell><mxCell id="79" value="1" style="text;html=1;align=center;verticalAlign=middle;resizable=0;points=[];autosize=1;strokeColor=none;fillColor=none;" parent="1" vertex="1"><mxGeometry x="405" y="270" width="30" height="30" as="geometry"/></mxCell><mxCell id="80" value="Start_date" style="ellipse;whiteSpace=wrap;html=1;" parent="1" vertex="1"><mxGeometry x="275" y="255" width="80" height="50" as="geometry"/></mxCell><mxCell id="83" style="edgeStyle=none;rounded=0;orthogonalLoop=1;jettySize=auto;html=1;entryX=1;entryY=0.5;entryDx=0;entryDy=0;endArrow=none;endFill=0;" parent="1" source="82" target="22" edge="1"><mxGeometry relative="1" as="geometry"/></mxCell><mxCell id="82" value="Hours" style="ellipse;whiteSpace=wrap;html=1;" parent="1" vertex="1"><mxGeometry x="670" y="370" width="90" height="50" as="geometry"/></mxCell></root></mxGraphModel></diagram></mxfile>